<?xml version="1.0" encoding="UTF-8" standalone="no"?>
<svg xmlns:svg="http://www.w3.org/2000/svg" xmlns="http://www.w3.org/2000/svg" version="1.1" viewBox="0 0 32 32" height="32mm" width="32mm">
	<g transform="translate(0,-265)">
		<path id="path27-3" d="m 17.295022,295.33431 c 0.230628,-0.32478 0.179154,-0.65226 -0.01332,-0.9811 0.124691,-0.28919 0.446337,-0.55416 0.202035,-0.92399 -0.351802,-1.388 0.03684,-2.73023 -0.830342,-3.86966 -0.278655,0.17151 -0.490829,0.5587 -0.813017,0.58898 -0.688307,0.002 -1.218836,-0.50438 -1.824608,-0.76832 -0.246954,-0.0576 -0.133048,0.60825 -0.239757,0.8318 -0.144677,0.61902 0.17508,1.71437 0.01944,2.32024 -0.226458,0.43288 -0.139921,0.84974 -0.100942,1.36065 -0.102699,0.3844 -0.0058,0.89265 0.162466,1.23921 0.03909,0.29962 -0.378141,0.47944 -0.429073,0.78479 0.335505,0.25561 -0.01039,0.0789 0.336523,0.61018 -0.2486,-0.0208 -1.250679,0.26186 -1.19148,-0.084 0.08559,-0.35237 0.155017,-0.70203 -0.111313,-0.99567 -0.305359,-0.34177 0.05253,-0.75504 0.10345,-1.13521 0.0873,-0.59552 0.03012,-1.0055 0.05805,-1.59731 -0.183534,-0.3965 -0.146966,-0.99761 -0.09524,-1.44392 l -0.31785,-2.17915 c -0.885727,0.0218 -1.777726,0.0928 -2.6595725,0.0841 l -1.9508261,-0.58524 c -0.290941,0.86359 -0.672338,1.70952 -0.906036,2.58429 0.01111,0.63802 -0.115073,1.29331 -0.01536,1.92019 0.244803,0.8573 0.471059,1.72167 0.909646,2.5051 0.148688,0.31389 0.297376,0.62779 0.446064,0.94169 -0.467722,-0.0446 -0.935443,-0.0891 -1.403165,-0.13364 0.02725,-0.37664 -0.01053,-0.70076 -0.465528,-0.68798 -0.351464,-0.0679 -0.1902,-0.60426 -0.32055,-0.87418 -0.188882,-0.96511 -0.284631,-1.95565 -0.698016,-2.85944 -0.16234,-0.44156 -0.324679,-0.88313 -0.487019,-1.32469 0.356359,-0.55681 0.712719,-1.11363 1.069078,-1.67044 l -0.334087,-1.40316 c -0.799837,1.05144 -1.670664,2.05399 -2.303745,3.22026 -0.295867,0.50996 -0.696445,0.97918 -0.722109,1.59424 -0.16652,0.90184 -0.425416,1.79399 -0.361846,2.71993 -0.0067,0.47304 -0.01333,0.94607 -0.01999,1.4191 -0.427052,-0.10225 -0.922091,-0.0704 -1.19727101,-0.47222 -0.287267,-0.21971 -0.03538,-0.653 -0.08188,-0.96809 0.01317,-0.94636 0.43318101,-1.82117 0.64745701,-2.73216 0.221967,-0.85302 0.187364,-1.754 0.302597,-2.62697 0.0012,-0.42609 0.281408,-0.78304 0.255571,-1.21847 0.03534,-0.58578 0.475115,-1.04525 0.694783,-1.57347 0.22328,-0.33121 0.34046,-0.69037 0.297095,-1.09182 0.02797,-0.96024 0.05594,-1.92049 0.0839,-2.88073 -0.333243,-1.09714 0.66303,-2.06026 1.680092,-2.24203 1.442824,-0.43082 2.848408,0.36326 4.292561,0.2678 1.8053686,0.0293 3.6249106,-0.12102 5.4197106,0.10333 2.16835,0.89217 4.264405,1.96912 6.340082,3.04907 0.477513,-0.45007 0.52559,-1.07797 1.199428,-0.54013 0.46594,-0.0689 0.598731,0.0945 0.365665,0.51297 -0.100481,0.33172 -0.316779,0.69246 0.08972,0.89711 0.241594,0.2416 0.483185,0.48319 0.724779,0.72478 -0.06757,0.36141 -0.238434,0.73033 -0.245563,1.08736 0.21333,0.55945 0.508299,1.1084 0.671948,1.67424 0.0794,0.45083 -0.303549,0.50488 -0.649051,0.59106 -0.626719,0.47039 -0.708716,-0.51523 -1.336452,-0.41746 -0.700801,-0.0854 -1.263541,-0.60523 -1.927279,-0.76362 h -1.124002 c -0.196291,0.286 -0.506261,0.5614 -0.208759,0.89342 -0.02415,1.41733 -0.06467,3.00895 0.02048,4.30348 0.161333,0.78712 0.31726,1.57481 0.277342,2.38261 0.0071,0.37142 0.191367,0.63651 0.198464,1.00791 -0.435396,-0.42731 -0.929847,0.20842 -1.365244,-0.21889 z" style="fill:#ff7f2a;stroke:none;" />
		<path id="path4556" d="m 23.954031,271.04145 -6.681738,0.63476 -1.202713,5.84652 -2.372017,0.16705 1.603617,-7.61718 9.554886,-1.03567 0.63786,0.45953 3.916677,-4.22017 2.343905,0.80873 -4.611754,4.59931 0.82032,0.59098 0.900512,7.77548 -6.096338,3.70127 -0.407941,-2.14231 4.373276,-2.44056 -0.640393,-6.12548 z" style="fill:#cccccc;stroke:none;" />
		<circle r="2.3553126" cy="270.95795" cx="26.042074" id="path4558" style="opacity:1;fill:#b3ff80;stroke:none;" />
	</g>
</svg>
